<mxfile host="app.diagrams.net" modified="2023-11-30T02:29:25.914Z" agent="Mozilla/5.0 (Windows NT 10.0; Win64; x64) AppleWebKit/537.36 (KHTML, like Gecko) Chrome/119.0.0.0 Safari/537.36" version="22.1.5" etag="XE2z0mk4aST5Ubsp9p6q" type="github">
  <diagram name="PÃ¡gina-1" id="hSjLDxZet-JovOq9cwYC">
    <mxGraphModel>
      <root>
        <mxCell id="0" />
        <mxCell id="1" parent="0" />
      </root>
    </mxGraphModel>
  </diagram>
</mxfile>
